<svg version="1.1" id="Layer_1" xmlns:x="ns_extend;" xmlns:i="ns_ai;" xmlns:graph="ns_graphs;" xmlns="http://www.w3.org/2000/svg" xmlns:xlink="http://www.w3.org/1999/xlink" x="0px" y="0px" viewBox="0 0 186.8 186.8" style="enable-background:new 0 0 186.8 186.8;" xml:space="preserve">
 <style type="text/css">
  .st0{fill:#FC5656;}
 </style>
 <metadata>
  <sfw xmlns="ns_sfw;">
   <slices>
   </slices>
   <sliceSourceBounds bottomLeftOrigin="true" height="186.8" width="186.8" x="-228" y="0.9">
   </sliceSourceBounds>
  </sfw>
 </metadata>
 <g>
  <g>
   <path class="st0" d="M159.9,27c-14.1-14.1-29.2-5-38.6,4.5l-89,89c-9.4,9.4-19.3,23.7-4.5,38.6c14.8,14.8,29.2,5,38.6-4.5l89-89
			C164.8,56.1,174,41.1,159.9,27z">
   </path>
  </g>
  <path class="st0" d="M74.8,23.3l18.9,18.9L112.8,23c1.3-1.3,2.6-2.5,4-3.7C114.8,9.2,109,0,93.6,0C78.2,0,72.5,9.2,70.5,19.4
		C71.9,20.6,73.3,21.9,74.8,23.3z">
  </path>
  <path class="st0" d="M112.8,163.4l-19.2-19.2L74.8,163c-1.4,1.4-2.9,2.7-4.3,4c2.2,10.3,8.3,19.8,23.1,19.8
		c14.9,0,21-9.5,23.1-19.9C115.4,165.8,114.1,164.7,112.8,163.4z">
  </path>
  <path class="st0" d="M66.8,69H30.4C17.1,69,0,73.2,0,93.2c0,14.9,9.5,21,19.9,23.1C21.1,114.9,66.8,69,66.8,69z">
  </path>
  <path class="st0" d="M167.4,70c-1.1,1.3-46.9,47.3-46.9,47.3h35.8c13.3,0,30.4-3.1,30.4-24.1C186.8,77.8,177.6,72,167.4,70z">
  </path>
  <path class="st0" d="M78.7,57.1l6.5-6.5L66.3,31.7c-9.4-9.4-23.7-19.3-38.6-4.5c-10.9,10.9-8.5,21.5-2.7,30.1
		C26.8,57.2,78.7,57.1,78.7,57.1z">
  </path>
  <path class="st0" d="M108.6,129.2l-6.5,6.5l19.2,19.2c9.4,9.4,24.5,18.6,38.6,4.5c10.5-10.5,8.1-21.6,2.3-30.4
		C160.3,129.1,108.6,129.2,108.6,129.2z">
  </path>
 </g>
</svg>